# Blender v2.93.1 OBJ File: 'Items.blend'
# www.blender.org
mtllib Axt.mtl
o Cube.003
v -1.319366 18.546520 0.698896
v -1.319366 20.558708 0.660838
v -1.319366 18.546520 -0.698896
v -1.319366 20.558708 -0.660838
v 1.234143 18.546520 0.642863
v 1.234143 20.546520 0.637260
v 1.234143 18.546520 -0.642863
v 1.234143 20.546520 -0.637260
v 1.415845 20.546520 -0.594635
v 1.415845 18.546520 -0.598635
v 1.415845 18.546520 0.598635
v 1.415845 20.546520 0.594635
v 1.608561 20.546520 -0.471274
v 1.608561 18.546520 -0.473442
v 1.608561 18.546520 0.473442
v 1.608561 20.546520 0.471274
v 1.767259 20.546520 -0.367922
v 1.767259 18.546520 -0.368996
v 1.767259 18.546520 0.368996
v 1.767259 20.546520 0.367922
v -6.606150 14.614196 -0.089444
v -6.606150 14.614196 0.089444
v -6.606150 21.442333 0.089444
v -6.606150 21.442333 -0.089444
v -2.376723 20.822058 -0.495343
v -3.434079 21.058186 -0.370432
v -4.491436 21.244915 -0.252169
v -5.548793 21.390461 -0.165447
v -5.548793 21.390461 0.165447
v -4.491436 21.244915 0.252169
v -3.434079 21.058186 0.370432
v -2.376723 20.822058 0.495343
v -2.376723 18.106329 0.563527
v -3.434079 17.564053 0.449376
v -4.491436 16.884443 0.326914
v -5.548793 16.064711 0.234782
v -5.548793 16.064711 -0.234782
v -4.491436 16.884443 -0.326914
v -3.434079 17.564053 -0.449376
v -2.376723 18.106329 -0.563527
v -1.319366 18.546520 0.000000
v -1.319366 20.558708 0.000000
v 1.234143 18.546520 0.000000
v 1.234143 20.546520 0.000000
v 1.415845 18.546520 0.000000
v 1.415845 20.546520 0.000000
v 1.608561 18.546520 0.000000
v 1.608561 20.546520 0.000000
v 1.767259 18.546520 0.000000
v 1.767259 20.546520 0.000000
v -6.852031 14.289165 0.000000
v -6.852031 21.442333 0.000000
v -2.376723 18.106329 0.000000
v -3.434079 17.564053 0.000000
v -4.491436 16.884443 0.000000
v -5.548793 16.064711 0.000000
v -2.376723 20.822058 0.000000
v -3.434079 21.058186 0.000000
v -4.491436 21.244915 0.000000
v -5.548793 21.390461 0.000000
v -1.295608 18.948957 0.691285
v -1.278295 19.351397 0.683673
v -1.278295 19.753834 0.676062
v -1.288184 20.156271 0.668450
v -1.288184 20.156271 -0.668450
v -1.278295 19.753834 -0.676062
v -1.278295 19.351397 -0.683673
v -1.295608 18.948957 -0.691285
v 1.416857 20.146521 -0.638380
v 1.474802 19.746521 -0.639501
v 1.474802 19.346519 -0.640621
v 1.373353 18.946520 -0.641742
v 1.416857 20.146521 0.638380
v 1.474802 19.746521 0.639501
v 1.474802 19.346519 0.640621
v 1.373353 18.946520 0.641742
v 1.609341 20.146521 -0.595435
v 1.670705 19.746521 -0.596235
v 1.670705 19.346519 -0.597035
v 1.563269 18.946520 -0.597835
v 1.609341 20.146521 0.595435
v 1.670705 19.746521 0.596235
v 1.670705 19.346519 0.597035
v 1.563269 18.946520 0.597835
v 1.813492 20.146521 -0.471707
v 1.878484 19.746521 -0.472141
v 1.878484 19.346519 -0.472575
v 1.764699 18.946520 -0.473008
v 1.813492 20.146521 0.471707
v 1.878484 19.746521 0.472141
v 1.878484 19.346519 0.472575
v 1.764699 18.946520 0.473008
v 1.981608 20.146521 -0.368137
v 2.049587 19.746521 -0.368352
v 2.049587 19.346519 -0.368566
v 1.930572 18.946520 -0.368781
v 1.981608 20.146521 0.368137
v 2.049587 19.746521 0.368352
v 2.049587 19.346519 0.368566
v 1.930572 18.946520 0.368781
v -6.821423 15.979823 0.089444
v -6.978303 17.345451 0.089444
v -6.978303 18.711079 0.089444
v -6.888697 20.076706 0.089444
v -6.888697 20.076706 -0.089444
v -6.978303 18.711079 -0.089444
v -6.978303 17.345451 -0.089444
v -6.821423 15.979823 -0.089444
v -2.408286 20.278912 0.508980
v -2.418296 19.735767 0.522617
v -2.418296 19.192621 0.536253
v -2.400771 18.649475 0.549890
v -3.528389 20.359360 0.386221
v -3.558298 19.660532 0.402010
v -3.558298 18.961706 0.417798
v -3.505934 18.262880 0.433587
v -4.648492 20.372820 0.267118
v -4.698300 19.500727 0.282067
v -4.698300 18.628632 0.297016
v -4.611097 17.756538 0.311965
v -5.768594 20.325310 0.179314
v -5.838301 19.260160 0.193181
v -5.838301 18.195009 0.207048
v -5.716260 17.129860 0.220915
v -2.400771 18.649475 -0.549890
v -2.418296 19.192621 -0.536253
v -2.418296 19.735767 -0.522617
v -2.408286 20.278912 -0.508980
v -3.505934 18.262880 -0.433587
v -3.558298 18.961706 -0.417798
v -3.558298 19.660534 -0.402010
v -3.528389 20.359360 -0.386221
v -4.611097 17.756538 -0.311965
v -4.698300 18.628632 -0.297016
v -4.698300 19.500727 -0.282067
v -4.648492 20.372820 -0.267118
v -5.716260 17.129860 -0.220915
v -5.838301 18.195011 -0.207048
v -5.838301 19.260160 -0.193181
v -5.768594 20.325310 -0.179314
v -7.149169 20.011700 0.000000
v -7.243403 18.581066 0.000000
v -7.243403 17.150433 0.000000
v -7.078421 15.719798 0.000000
v 1.981608 20.146521 0.000000
v 2.049587 19.746521 0.000000
v 2.049587 19.346519 0.000000
v 1.930572 18.946520 0.000000
v -0.000000 0.097528 -0.643041
v -0.000000 20.742409 -0.643041
v 0.587785 0.097528 -0.520231
v 0.587785 20.742409 -0.520231
v 0.951056 0.097528 -0.198711
v 0.951056 20.742409 -0.198711
v 0.951056 0.097528 0.198711
v 0.951056 20.742409 0.198711
v 0.587785 0.097528 0.520231
v 0.587785 20.742409 0.520231
v -0.000000 0.097528 0.643041
v -0.000000 20.742409 0.643041
v -1.307163 0.097528 0.520231
v -0.587785 20.742409 0.520231
v -1.670434 0.097528 0.198711
v -0.951056 20.742409 0.198711
v -1.670434 0.097528 -0.198711
v -0.951056 20.742409 -0.198711
v -1.307163 0.097528 -0.520231
v -0.587785 20.742409 -0.520231
v -0.000000 3.215471 -0.718544
v 0.656800 3.215471 -0.581314
v 1.062724 3.215471 -0.222042
v 1.062724 3.215471 0.222042
v 0.656800 3.215471 0.581314
v -0.000000 3.215471 0.718544
v -0.656800 3.215471 0.581314
v -1.062724 3.215471 0.222042
v -1.062724 3.215471 -0.222042
v -0.656800 3.215471 -0.581314
v 0.122703 6.371178 -0.674087
v 0.082843 11.768728 -0.643041
v 0.670628 11.768727 -0.520231
v 0.738866 6.371177 -0.545348
v 1.033899 11.768727 -0.198711
v 1.119676 6.371177 -0.208304
v 1.033899 11.768727 0.198711
v 1.119675 6.371177 0.208304
v 0.670628 11.768727 0.520231
v 0.738865 6.371177 0.545348
v 0.082842 11.768727 0.643041
v 0.122703 6.371177 0.674087
v -0.504943 11.768727 0.520231
v -0.493460 6.371177 0.545348
v -0.868214 11.768727 0.198711
v -0.874270 6.371177 0.208304
v -0.868214 11.768727 -0.198711
v -0.874270 6.371177 -0.208304
v -0.504943 11.768727 -0.520231
v -0.493460 6.371177 -0.545348
vt 0.093298 0.367099
vt 0.078003 0.367099
vt 0.085029 0.338438
vt 0.093298 0.331842
vt 0.534315 0.269823
vt 0.536539 0.286926
vt 0.441000 0.288028
vt 0.433156 0.271131
vt 0.093298 0.553862
vt 0.152211 0.553862
vt 0.148271 0.558737
vt 0.093298 0.558737
vt 0.043355 0.078268
vt 0.051199 0.061371
vt 0.146738 0.062472
vt 0.144514 0.079576
vt 0.244242 0.391926
vt 0.244242 0.342219
vt 0.326889 0.342219
vt 0.334092 0.391926
vt 0.093298 0.485287
vt 0.154391 0.485287
vt 0.136866 0.563907
vt 0.093298 0.563907
vt 0.434540 0.288187
vt 0.426294 0.271297
vt 0.041995 0.129330
vt 0.046216 0.146428
vt 0.039768 0.146269
vt 0.035237 0.129166
vt 0.161595 0.342219
vt 0.167281 0.338682
vt 0.244242 0.338682
vt 0.428794 0.349225
vt 0.428754 0.332050
vt 0.438410 0.332221
vt 0.438430 0.349403
vt 0.527570 0.400079
vt 0.527496 0.416877
vt 0.516091 0.417085
vt 0.516132 0.400298
vt 0.417254 0.349007
vt 0.417180 0.331842
vt 0.183376 0.334931
vt 0.244242 0.334931
vt 0.472523 0.400479
vt 0.472523 0.417256
vt 0.438509 0.417256
vt 0.438490 0.400479
vt 0.196803 0.331842
vt 0.244242 0.331842
vt 0.127312 0.568164
vt 0.093298 0.568164
vt 0.506537 0.417256
vt 0.506557 0.400479
vt 0.759100 0.260726
vt 0.751496 0.321751
vt 0.741547 0.321809
vt 0.748765 0.263558
vt 0.375637 0.408739
vt 0.353931 0.408739
vt 0.367368 0.345926
vt 0.375637 0.331842
vt 0.696471 0.138835
vt 0.687452 0.093628
vt 0.724691 0.031438
vt 0.736130 0.089378
vt 0.316861 0.074665
vt 0.311366 0.029216
vt 0.351746 0.027590
vt 0.358964 0.085841
vt 0.188374 0.051758
vt 0.188104 0.074890
vt 0.229609 0.042244
vt 0.231289 0.072038
vt 0.270668 0.034838
vt 0.274279 0.072038
vt 0.531426 0.218453
vt 0.531260 0.201316
vt 0.570912 0.182081
vt 0.573265 0.205177
vt 0.610137 0.158481
vt 0.614685 0.188170
vt 0.649092 0.129050
vt 0.655852 0.166077
vt 0.316689 0.412509
vt 0.244242 0.412509
vt 0.302014 0.433091
vt 0.244242 0.433091
vt 0.375636 0.474765
vt 0.334092 0.474765
vt 0.345414 0.444731
vt 0.375636 0.444731
vt 0.032205 0.485287
vt 0.047504 0.455426
vt 0.093298 0.455426
vt 0.059052 0.425719
vt 0.093298 0.425719
vt 0.069985 0.396292
vt 0.093298 0.396292
vt 0.116610 0.396292
vt 0.108593 0.367099
vt 0.127544 0.425719
vt 0.139091 0.455426
vt 0.405859 0.444731
vt 0.397342 0.408739
vt 0.417180 0.474765
vt 0.171794 0.412509
vt 0.186470 0.433091
vt 0.154391 0.391926
vt 0.383905 0.345926
vt 0.361695 0.027649
vt 0.369299 0.088672
vt 0.049730 0.563907
vt 0.059284 0.568164
vt 0.305108 0.334931
vt 0.291680 0.331842
vt 0.321203 0.338682
vt 0.038325 0.558737
vt 0.034384 0.553862
vt 0.101567 0.338438
vt 0.506636 0.332221
vt 0.506616 0.349403
vt 0.472523 0.349403
vt 0.472523 0.332221
vt 0.506596 0.366539
vt 0.472523 0.366539
vt 0.506576 0.383545
vt 0.472523 0.383545
vt 0.334890 0.317961
vt 0.346329 0.260022
vt 0.356052 0.271145
vt 0.344036 0.331842
vt 0.355580 0.202045
vt 0.365767 0.210409
vt 0.358951 0.143970
vt 0.369299 0.149570
vt 0.660469 0.314562
vt 0.664080 0.277361
vt 0.706662 0.274735
vt 0.701168 0.320183
vt 0.663671 0.240227
vt 0.706532 0.229380
vt 0.661396 0.203125
vt 0.703789 0.184069
vt 0.619410 0.307155
vt 0.621090 0.277362
vt 0.620356 0.247608
vt 0.618502 0.217873
vt 0.578175 0.297641
vt 0.577905 0.274509
vt 0.576828 0.251391
vt 0.575375 0.228279
vt 0.532889 0.252708
vt 0.531833 0.235586
vt 0.259290 0.220350
vt 0.266051 0.183322
vt 0.306670 0.210565
vt 0.297651 0.255772
vt 0.271594 0.146274
vt 0.313987 0.165330
vt 0.273870 0.109172
vt 0.316730 0.120019
vt 0.220336 0.190918
vt 0.224883 0.161228
vt 0.228701 0.131526
vt 0.230555 0.101792
vt 0.181110 0.167318
vt 0.183464 0.144222
vt 0.185574 0.121120
vt 0.187026 0.098008
vt 0.141459 0.148083
vt 0.141624 0.130946
vt 0.142031 0.113814
vt 0.143087 0.096691
vt 0.748752 0.205428
vt 0.745381 0.147354
vt 0.733837 0.017558
vt 0.745853 0.078255
vt 0.755569 0.138991
vt 0.759100 0.199829
vt 0.516292 0.332050
vt 0.516252 0.349225
vt 0.516212 0.366355
vt 0.516172 0.383361
vt 0.438450 0.366539
vt 0.438470 0.383545
vt 0.417550 0.416877
vt 0.417476 0.400079
vt 0.428915 0.400298
vt 0.428955 0.417085
vt 0.417402 0.383138
vt 0.428875 0.383361
vt 0.417328 0.366130
vt 0.428834 0.366355
vt 0.527866 0.331842
vt 0.527792 0.349007
vt 0.527718 0.366130
vt 0.527644 0.383138
vt 0.036493 0.078102
vt 0.044739 0.061212
vt 0.040186 0.095244
vt 0.033199 0.095075
vt 0.039190 0.112255
vt 0.032205 0.112087
vt 0.436017 0.202970
vt 0.431796 0.220069
vt 0.425038 0.220234
vt 0.429570 0.203131
vt 0.428991 0.237144
vt 0.422006 0.237313
vt 0.429987 0.254155
vt 0.423000 0.254324
vt 0.952214 0.674223
vt 0.944626 0.432619
vt 0.957941 0.432428
vt 0.965528 0.674031
vt 0.877362 0.746558
vt 0.877362 0.987984
vt 0.858550 0.988232
vt 0.858550 0.746806
vt 0.835296 0.988232
vt 0.835296 0.746806
vt 0.816483 0.987984
vt 0.816483 0.746558
vt 0.920560 0.747023
vt 0.912972 0.988626
vt 0.899658 0.988434
vt 0.907245 0.746831
vt 0.885075 0.988420
vt 0.892663 0.746817
vt 0.809335 0.747289
vt 0.809335 0.988726
vt 0.790523 0.988483
vt 0.790523 0.747047
vt 0.767269 0.988483
vt 0.767269 0.747047
vt 0.612365 0.714249
vt 0.593065 0.717965
vt 0.573764 0.714249
vt 0.561836 0.704521
vt 0.561836 0.692496
vt 0.573764 0.682768
vt 0.593065 0.679052
vt 0.612365 0.682768
vt 0.624294 0.692496
vt 0.624294 0.704521
vt 0.748456 0.988726
vt 0.748456 0.747289
vt 0.937631 0.674237
vt 0.930044 0.432634
vt 0.654549 0.679105
vt 0.640545 0.673938
vt 0.631890 0.660410
vt 0.631890 0.643688
vt 0.640545 0.630160
vt 0.654549 0.624992
vt 0.685693 0.630160
vt 0.694348 0.643688
vt 0.694348 0.660410
vt 0.685693 0.673938
vt 0.925905 0.988626
vt 0.939701 0.904605
vt 0.955996 0.904589
vt 0.957559 0.988486
vt 0.767269 0.432428
vt 0.765904 0.516740
vt 0.744882 0.517010
vt 0.748456 0.432670
vt 0.790523 0.432428
vt 0.791888 0.516740
vt 0.809335 0.432670
vt 0.812909 0.517010
vt 0.912591 0.432567
vt 0.911027 0.516464
vt 0.894732 0.516448
vt 0.880937 0.432428
vt 0.925905 0.432759
vt 0.925905 0.516678
vt 0.835296 0.432675
vt 0.833931 0.516656
vt 0.812909 0.516379
vt 0.816483 0.432428
vt 0.858550 0.432675
vt 0.859915 0.516656
vt 0.877363 0.432428
vt 0.880937 0.516379
vt 0.970873 0.904376
vt 0.970873 0.988295
vt 0.941414 0.819583
vt 0.956701 0.819568
vt 0.766708 0.601789
vt 0.746987 0.602043
vt 0.791084 0.601789
vt 0.810805 0.602043
vt 0.911733 0.601486
vt 0.896446 0.601471
vt 0.925690 0.601686
vt 0.834735 0.601615
vt 0.815014 0.601356
vt 0.859111 0.601615
vt 0.878832 0.601356
vt 0.970658 0.819368
vn 0.0453 0.9980 0.0437
vn 0.0103 0.0136 -0.9999
vn 0.0000 1.0000 0.0000
vn 0.0103 0.0136 0.9999
vn 0.0000 -1.0000 0.0000
vn 0.0048 1.0000 0.0000
vn 0.2217 0.1066 -0.9693
vn 0.2300 -0.0801 0.9699
vn 0.5287 -0.2104 0.8223
vn 0.5110 0.2557 -0.8207
vn 0.5251 -0.1980 0.8277
vn 0.8814 0.4723 0.0000
vn 0.5150 0.2706 -0.8134
vn -0.3403 0.0706 -0.9377
vn 0.8073 -0.5898 -0.0210
vn -0.1127 -0.0121 -0.9936
vn -0.0779 0.0218 0.9967
vn -0.1437 0.0223 0.9894
vn -0.1080 0.0345 0.9936
vn -0.1050 0.0362 0.9938
vn -0.0785 0.0301 0.9965
vn -0.1344 0.0222 -0.9907
vn -0.1123 0.0149 -0.9936
vn -0.1151 0.0054 -0.9933
vn -0.0858 0.0021 -0.9963
vn 0.3843 -0.9232 0.0000
vn 0.4563 -0.8898 0.0000
vn 0.5407 -0.8412 0.0000
vn 0.6127 -0.7903 0.0000
vn 0.2417 0.9704 0.0000
vn 0.2180 0.9760 0.0000
vn 0.1739 0.9848 0.0000
vn 0.1364 0.9907 0.0000
vn 0.8073 -0.5898 0.0210
vn -0.3403 0.0706 0.9377
vn 0.0453 0.9980 -0.0437
vn 0.9258 -0.3780 0.0000
vn 0.9585 -0.2852 0.0000
vn 1.0000 0.0000 0.0000
vn 0.9859 0.1675 0.0000
vn -0.2875 -0.0454 0.9567
vn -0.2971 -0.0342 0.9542
vn -0.3197 0.0000 0.9475
vn -0.3293 0.0217 0.9440
vn -0.0785 0.0301 -0.9965
vn -0.0804 0.0198 -0.9966
vn -0.0826 0.0148 -0.9965
vn -0.0831 0.0058 -0.9965
vn -0.1050 0.0362 -0.9938
vn -0.1067 0.0249 -0.9940
vn -0.1091 0.0194 -0.9938
vn -0.1109 0.0096 -0.9938
vn -0.1080 0.0345 -0.9936
vn -0.1070 0.0270 -0.9939
vn -0.1074 0.0235 -0.9939
vn -0.1087 0.0174 -0.9939
vn -0.1437 0.0223 -0.9894
vn -0.1361 0.0223 -0.9904
vn -0.1325 0.0223 -0.9909
vn -0.1320 0.0222 -0.9910
vn -0.0858 0.0021 0.9963
vn -0.0831 0.0058 0.9965
vn -0.0826 0.0148 0.9965
vn -0.0804 0.0198 0.9966
vn -0.1151 0.0054 0.9933
vn -0.1109 0.0096 0.9938
vn -0.1091 0.0194 0.9938
vn -0.1067 0.0249 0.9940
vn -0.1123 0.0149 0.9936
vn -0.1087 0.0174 0.9939
vn -0.1074 0.0235 0.9939
vn -0.1070 0.0270 0.9939
vn -0.1344 0.0222 0.9907
vn -0.1320 0.0222 0.9910
vn -0.1325 0.0223 0.9909
vn -0.1361 0.0223 0.9904
vn -0.1127 -0.0121 0.9936
vn -0.1047 -0.0063 0.9945
vn -0.1001 0.0057 0.9950
vn -0.0894 0.0115 0.9959
vn -0.0779 0.0218 -0.9967
vn -0.0894 0.0115 -0.9959
vn -0.1001 0.0057 -0.9950
vn -0.1047 -0.0063 -0.9945
vn -0.2875 -0.0454 -0.9567
vn -0.2971 -0.0342 -0.9542
vn -0.3197 0.0000 -0.9475
vn -0.3293 0.0217 -0.9440
vn 0.5287 -0.2104 -0.8223
vn 0.5197 -0.1505 -0.8410
vn 0.5190 0.0007 -0.8548
vn 0.5196 0.0871 -0.8500
vn 0.5110 0.2557 0.8207
vn 0.5138 0.0825 0.8540
vn 0.5133 0.0013 0.8582
vn 0.5150 -0.1411 0.8455
vn 0.5251 -0.1980 -0.8277
vn 0.5151 -0.1411 -0.8455
vn 0.5133 0.0013 -0.8582
vn 0.5138 0.0825 -0.8540
vn 0.5150 0.2706 0.8134
vn 0.5196 0.0871 0.8500
vn 0.5190 0.0007 0.8548
vn 0.5197 -0.1505 0.8410
vn 0.2217 0.1066 0.9693
vn 0.2166 0.0346 0.9757
vn 0.2164 0.0023 0.9763
vn 0.2208 -0.0553 0.9737
vn 0.2300 -0.0801 -0.9699
vn 0.2208 -0.0553 -0.9737
vn 0.2164 0.0023 -0.9763
vn 0.2166 0.0346 -0.9757
vn 0.0202 0.0068 0.9998
vn 0.0171 0.0084 0.9998
vn 0.0145 0.0109 0.9998
vn 0.0122 0.0119 0.9999
vn 0.0202 0.0068 -0.9998
vn 0.0171 0.0084 -0.9998
vn 0.0145 0.0109 -0.9998
vn 0.0122 0.0119 -0.9999
vn 0.2045 0.0019 -0.9789
vn 0.6628 0.0061 -0.7488
vn 1.0000 0.0092 0.0000
vn 0.6628 0.0061 0.7488
vn 0.2045 0.0019 0.9789
vn -0.2045 -0.0019 0.9789
vn -0.6628 -0.0061 0.7488
vn -1.0000 -0.0092 0.0000
vn -0.6628 -0.0061 -0.7488
vn -0.2045 -0.0019 -0.9789
vn -0.1313 -0.0080 -0.9913
vn -0.6578 0.1226 -0.7432
vn -0.9815 0.1913 0.0000
vn -0.6578 0.1226 0.7432
vn -0.1313 -0.0080 0.9913
vn 0.2045 -0.0237 0.9786
vn 0.6625 -0.0293 0.7485
vn 0.9994 -0.0358 0.0000
vn 0.6625 -0.0293 -0.7485
vn 0.2045 -0.0237 -0.9786
vn -0.2045 0.0217 -0.9786
vn -0.2045 0.0041 -0.9789
vn -0.6622 0.0428 -0.7481
vn -0.6628 0.0021 -0.7488
vn -0.9982 0.0596 0.0000
vn -1.0000 0.0011 0.0000
vn -0.6622 0.0428 0.7481
vn -0.6628 0.0021 0.7488
vn -0.2045 0.0217 0.9786
vn -0.2045 0.0041 0.9789
vn 0.2045 0.0058 0.9788
vn 0.2045 0.0071 0.9788
vn 0.6627 -0.0087 0.7488
vn 0.6627 0.0119 0.7488
vn 0.9998 -0.0180 0.0000
vn 0.9999 0.0159 0.0000
vn 0.6627 -0.0087 -0.7488
vn 0.6627 0.0119 -0.7488
vn 0.2045 0.0058 -0.9788
vn 0.2045 0.0071 -0.9788
usemtl Material.001
s off
f 60/1/1 28/2/1 24/3/1 52/4/1
f 65/5/2 4/6/2 8/7/2 69/8/2
f 44/9/3 6/10/3 12/11/3 46/12/3
f 73/13/4 6/14/4 2/15/4 64/16/4
f 41/17/5 43/18/5 5/19/5 1/20/5
f 44/9/6 42/21/6 2/22/6 6/10/6
f 46/12/3 12/11/3 16/23/3 48/24/3
f 69/8/7 8/7/7 9/25/7 77/26/7
f 76/27/8 5/28/8 11/29/8 84/30/8
f 43/18/5 7/31/5 10/32/5 45/33/5
f 92/34/9 15/35/9 19/36/9 100/37/9
f 77/38/10 9/39/10 13/40/10 85/41/10
f 84/42/11 11/43/11 15/35/11 92/34/11
f 45/33/5 10/32/5 14/44/5 47/45/5
f 145/46/12 50/47/12 20/48/12 97/49/12
f 47/45/5 14/44/5 18/50/5 49/51/5
f 48/24/3 16/23/3 20/52/3 50/53/3
f 85/41/13 13/40/13 17/54/13 93/55/13
f 141/56/14 52/57/14 24/58/14 105/59/14
f 56/60/15 36/61/15 22/62/15 51/63/15
f 137/64/16 37/65/16 21/66/16 108/67/16
f 121/68/17 29/69/17 23/70/17 104/71/17
f 64/16/18 2/15/18 32/72/18 109/73/18
f 109/73/19 32/72/19 31/74/19 113/75/19
f 113/75/20 31/74/20 30/76/20 117/77/20
f 117/77/21 30/76/21 29/69/21 121/68/21
f 68/78/22 3/79/22 40/80/22 125/81/22
f 125/81/23 40/80/23 39/82/23 129/83/23
f 129/83/24 39/82/24 38/84/24 133/85/24
f 133/85/25 38/84/25 37/65/25 137/64/25
f 41/17/26 1/20/26 33/86/26 53/87/26
f 53/87/27 33/86/27 34/88/27 54/89/27
f 54/90/28 34/91/28 35/92/28 55/93/28
f 55/93/29 35/92/29 36/61/29 56/60/29
f 42/21/30 4/94/30 25/95/30 57/96/30
f 57/96/31 25/95/31 26/97/31 58/98/31
f 58/98/32 26/97/32 27/99/32 59/100/32
f 59/100/33 27/99/33 28/2/33 60/1/33
f 30/101/33 59/100/33 60/1/33 29/102/33
f 31/103/32 58/98/32 59/100/32 30/101/32
f 32/104/31 57/96/31 58/98/31 31/103/31
f 2/22/30 42/21/30 57/96/30 32/104/30
f 38/105/29 55/93/29 56/60/29 37/106/29
f 39/107/28 54/90/28 55/93/28 38/105/28
f 40/108/27 53/87/27 54/89/27 39/109/27
f 3/110/26 41/17/26 53/87/26 40/108/26
f 37/106/34 56/60/34 51/63/34 21/111/34
f 104/71/35 23/70/35 52/112/35 141/113/35
f 13/114/3 48/24/3 50/53/3 17/115/3
f 15/116/5 47/45/5 49/51/5 19/117/5
f 93/55/12 17/54/12 50/47/12 145/46/12
f 11/118/5 45/33/5 47/45/5 15/116/5
f 5/19/5 43/18/5 45/33/5 11/118/5
f 9/119/3 46/12/3 48/24/3 13/114/3
f 8/120/6 4/94/6 42/21/6 44/9/6
f 3/110/5 7/31/5 43/18/5 41/17/5
f 8/120/3 44/9/3 46/12/3 9/119/3
f 29/102/36 60/1/36 52/4/36 23/121/36
f 18/122/37 96/123/37 148/124/37 49/125/37
f 96/123/38 95/126/38 147/127/38 148/124/38
f 95/126/39 94/128/39 146/129/39 147/127/39
f 94/128/40 93/55/40 145/46/40 146/129/40
f 22/130/41 101/131/41 144/132/41 51/133/41
f 101/131/42 102/134/42 143/135/42 144/132/42
f 102/134/43 103/136/43 142/137/43 143/135/43
f 103/136/44 104/71/44 141/113/44 142/137/44
f 27/138/45 136/139/45 140/140/45 28/141/45
f 136/139/46 135/142/46 139/143/46 140/140/46
f 135/142/47 134/144/47 138/145/47 139/143/47
f 134/144/48 133/85/48 137/64/48 138/145/48
f 26/146/49 132/147/49 136/139/49 27/138/49
f 132/147/50 131/148/50 135/142/50 136/139/50
f 131/148/51 130/149/51 134/144/51 135/142/51
f 130/149/52 129/83/52 133/85/52 134/144/52
f 25/150/53 128/151/53 132/147/53 26/146/53
f 128/151/54 127/152/54 131/148/54 132/147/54
f 127/152/55 126/153/55 130/149/55 131/148/55
f 126/153/56 125/81/56 129/83/56 130/149/56
f 4/6/57 65/5/57 128/151/57 25/150/57
f 65/5/58 66/154/58 127/152/58 128/151/58
f 66/154/59 67/155/59 126/153/59 127/152/59
f 67/155/60 68/78/60 125/81/60 126/153/60
f 35/156/61 120/157/61 124/158/61 36/159/61
f 120/157/62 119/160/62 123/161/62 124/158/62
f 119/160/63 118/162/63 122/163/63 123/161/63
f 118/162/64 117/77/64 121/68/64 122/163/64
f 34/164/65 116/165/65 120/157/65 35/156/65
f 116/165/66 115/166/66 119/160/66 120/157/66
f 115/166/67 114/167/67 118/162/67 119/160/67
f 114/167/68 113/75/68 117/77/68 118/162/68
f 33/168/69 112/169/69 116/165/69 34/164/69
f 112/169/70 111/170/70 115/166/70 116/165/70
f 111/170/71 110/171/71 114/167/71 115/166/71
f 110/171/72 109/73/72 113/75/72 114/167/72
f 1/172/73 61/173/73 112/169/73 33/168/73
f 61/173/74 62/174/74 111/170/74 112/169/74
f 62/174/75 63/175/75 110/171/75 111/170/75
f 63/175/76 64/16/76 109/73/76 110/171/76
f 36/159/77 124/158/77 101/131/77 22/130/77
f 124/158/78 123/161/78 102/134/78 101/131/78
f 123/161/79 122/163/79 103/136/79 102/134/79
f 122/163/80 121/68/80 104/71/80 103/136/80
f 28/141/81 140/140/81 105/59/81 24/58/81
f 140/140/82 139/143/82 106/176/82 105/59/82
f 139/143/83 138/145/83 107/177/83 106/176/83
f 138/145/84 137/64/84 108/67/84 107/177/84
f 51/178/85 144/179/85 108/67/85 21/66/85
f 144/179/86 143/180/86 107/177/86 108/67/86
f 143/180/87 142/181/87 106/176/87 107/177/87
f 142/181/88 141/56/88 105/59/88 106/176/88
f 14/182/89 88/183/89 96/123/89 18/122/89
f 88/183/90 87/184/90 95/126/90 96/123/90
f 87/184/91 86/185/91 94/128/91 95/126/91
f 86/185/92 85/41/92 93/55/92 94/128/92
f 49/125/37 148/124/37 100/37/37 19/36/37
f 148/124/38 147/127/38 99/186/38 100/37/38
f 147/127/39 146/129/39 98/187/39 99/186/39
f 146/129/40 145/46/40 97/49/40 98/187/40
f 12/188/93 81/189/93 89/190/93 16/191/93
f 81/189/94 82/192/94 90/193/94 89/190/94
f 82/192/95 83/194/95 91/195/95 90/193/95
f 83/194/96 84/42/96 92/34/96 91/195/96
f 10/196/97 80/197/97 88/183/97 14/182/97
f 80/197/98 79/198/98 87/184/98 88/183/98
f 79/198/99 78/199/99 86/185/99 87/184/99
f 78/199/100 77/38/100 85/41/100 86/185/100
f 16/191/101 89/190/101 97/49/101 20/48/101
f 89/190/102 90/193/102 98/187/102 97/49/102
f 90/193/103 91/195/103 99/186/103 98/187/103
f 91/195/104 92/34/104 100/37/104 99/186/104
f 6/14/105 73/13/105 81/200/105 12/201/105
f 73/13/106 74/202/106 82/203/106 81/200/106
f 74/202/107 75/204/107 83/205/107 82/203/107
f 75/204/108 76/27/108 84/30/108 83/205/108
f 7/206/109 72/207/109 80/208/109 10/209/109
f 72/207/110 71/210/110 79/211/110 80/208/110
f 71/210/111 70/212/111 78/213/111 79/211/111
f 70/212/112 69/8/112 77/26/112 78/213/112
f 5/28/113 76/27/113 61/173/113 1/172/113
f 76/27/114 75/204/114 62/174/114 61/173/114
f 75/204/115 74/202/115 63/175/115 62/174/115
f 74/202/116 73/13/116 64/16/116 63/175/116
f 3/79/117 68/78/117 72/207/117 7/206/117
f 68/78/118 67/155/118 71/210/118 72/207/118
f 67/155/119 66/154/119 70/212/119 71/210/119
f 66/154/120 65/5/120 69/8/120 70/212/120
f 180/214/121 150/215/121 152/216/121 181/217/121
f 181/218/122 152/219/122 154/220/122 183/221/122
f 183/221/123 154/220/123 156/222/123 185/223/123
f 185/223/124 156/222/124 158/224/124 187/225/124
f 187/226/125 158/227/125 160/228/125 189/229/125
f 189/229/126 160/228/126 162/230/126 191/231/126
f 191/232/127 162/233/127 164/234/127 193/235/127
f 193/235/128 164/234/128 166/236/128 195/237/128
f 152/238/3 150/239/3 168/240/3 166/241/3 164/242/3 162/243/3 160/244/3 158/245/3 156/246/3 154/247/3
f 195/237/129 166/236/129 168/248/129 197/249/129
f 197/250/130 168/251/130 150/215/130 180/214/130
f 149/252/5 151/253/5 153/254/5 155/255/5 157/256/5 159/257/5 161/258/5 163/259/5 165/260/5 167/261/5
f 167/262/131 178/263/131 169/264/131 149/265/131
f 165/266/132 177/267/132 178/268/132 167/269/132
f 163/270/133 176/271/133 177/267/133 165/266/133
f 161/272/134 175/273/134 176/271/134 163/270/134
f 159/274/135 174/275/135 175/276/135 161/277/135
f 157/278/136 173/279/136 174/275/136 159/274/136
f 155/280/137 172/281/137 173/282/137 157/283/137
f 153/284/138 171/285/138 172/281/138 155/280/138
f 151/286/139 170/287/139 171/285/139 153/284/139
f 149/265/140 169/264/140 170/288/140 151/289/140
f 178/263/141 198/290/141 179/291/141 169/264/141
f 198/290/142 197/250/142 180/214/142 179/291/142
f 177/267/143 196/292/143 198/293/143 178/268/143
f 196/292/144 195/237/144 197/249/144 198/293/144
f 176/271/145 194/294/145 196/292/145 177/267/145
f 194/294/146 193/235/146 195/237/146 196/292/146
f 175/273/147 192/295/147 194/294/147 176/271/147
f 192/295/148 191/232/148 193/235/148 194/294/148
f 174/275/149 190/296/149 192/297/149 175/276/149
f 190/296/150 189/229/150 191/231/150 192/297/150
f 173/279/151 188/298/151 190/296/151 174/275/151
f 188/298/152 187/226/152 189/229/152 190/296/152
f 172/281/153 186/299/153 188/300/153 173/282/153
f 186/299/154 185/223/154 187/225/154 188/300/154
f 171/285/155 184/301/155 186/299/155 172/281/155
f 184/301/156 183/221/156 185/223/156 186/299/156
f 170/287/157 182/302/157 184/301/157 171/285/157
f 182/302/158 181/218/158 183/221/158 184/301/158
f 169/264/159 179/291/159 182/303/159 170/288/159
f 179/291/160 180/214/160 181/217/160 182/303/160
