# Blender v2.92.0 OBJ File: 'foliage.blend'
# www.blender.org
mtllib foliage.mtl
o Plane.001
v 2.000000 2.000000 -1.000000
v 2.000000 0.000000 -1.000000
v 0.000000 2.000000 -1.000000
v 0.000000 0.000000 -1.000000
v 1.000000 2.000000 0.000000
v 1.000000 0.000000 0.000000
v 1.000000 2.000000 -2.000000
v 1.000000 0.000000 -2.000000
vt -0.001677 0.992711
vt 0.007289 -0.001677
vt 1.001677 0.007289
vt 0.992711 1.001677
vt 0.014389 0.982902
vt 0.017098 0.014389
vt 0.985611 0.017098
vt 0.982902 0.985611
vn 0.0000 -0.0000 -1.0000
vn 1.0000 -0.0000 0.0000
usemtl Material.001
s off
f 1/1/1 2/2/1 4/3/1 3/4/1
f 5/5/2 6/6/2 8/7/2 7/8/2
