# Blender v2.83.5 OBJ File: ''
# www.blender.org
mtllib arm.mtl
o Character.015_Cube.022
v 0.311549 1.383929 0.112471
v 0.341807 1.384874 0.112396
v 0.372047 1.386338 0.077302
v 0.363919 0.671581 -0.072613
v 0.394332 0.673034 -0.107686
v 0.394348 0.672550 -0.072671
v 0.333492 0.670626 -0.072555
v 0.363901 0.672064 -0.107626
v 0.303067 0.669684 -0.072499
v 0.333471 0.671107 -0.107568
v 0.364008 0.669167 0.102456
v 0.394408 0.670612 0.067389
v 0.394423 0.670127 0.102404
v 0.363973 0.670133 0.032429
v 0.394393 0.671096 0.032374
v 0.363955 0.670616 -0.002585
v 0.394378 0.671581 -0.002641
v 0.363937 0.671099 -0.037599
v 0.394363 0.672065 -0.037656
v 0.333595 0.668219 0.102508
v 0.363991 0.669650 0.067443
v 0.333554 0.669182 0.032483
v 0.333533 0.669663 -0.002530
v 0.333512 0.670145 -0.037543
v 0.303183 0.667282 0.102559
v 0.333574 0.668700 0.067495
v 0.303136 0.668243 0.032536
v 0.303113 0.668724 -0.002476
v 0.303090 0.669204 -0.037487
v 0.269012 0.785650 0.104302
v 0.270880 0.726161 0.091901
v 0.270885 0.726003 0.103457
v 0.238684 0.787603 -0.105811
v 0.216475 0.786826 -0.097596
v 0.208303 0.786691 -0.105768
v 0.208241 0.785270 -0.000674
v 0.219773 0.785143 0.034357
v 0.208221 0.784798 0.034357
v 0.302713 0.681235 -0.072340
v 0.301296 0.727084 0.091845
v 0.301301 0.726925 0.103402
v 0.208201 0.784326 0.069389
v 0.219753 0.784671 0.069389
v 0.302736 0.680755 -0.037328
v 0.270846 0.728879 -0.106655
v 0.269072 0.788366 -0.094298
v 0.269067 0.788525 -0.105854
v 0.302929 0.675562 0.094500
v 0.216346 0.784210 0.096248
v 0.208181 0.783856 0.104420
v 0.204491 0.903174 0.106115
v 0.302759 0.680274 -0.002317
v 0.301250 0.729811 -0.106705
v 0.270851 0.728721 -0.095098
v 0.303159 0.667763 0.067547
v 0.302782 0.679794 0.032695
v 0.208282 0.786216 -0.070736
v 0.219834 0.786564 -0.070736
v 0.238595 0.784746 0.104362
v 0.238591 0.784903 0.092805
v 0.302805 0.679314 0.067706
v 0.302797 0.678219 -0.099226
v 0.303043 0.670164 -0.107510
v 0.208262 0.785743 -0.035705
v 0.219814 0.786090 -0.035705
v 0.301255 0.729652 -0.095148
v 0.238689 0.787445 -0.094254
v 0.269007 0.785808 0.092746
v 0.219793 0.785616 -0.000674
v 0.219724 0.675345 -0.072222
v 0.241949 0.676371 -0.099114
v 0.241872 0.679388 -0.072230
v 0.218222 0.724553 0.095394
v 0.240465 0.725252 0.091955
v 0.218214 0.727185 -0.098384
v 0.221597 0.726921 -0.071536
v 0.221606 0.725018 0.068546
v 0.221604 0.725494 0.033525
v 0.221601 0.725969 -0.001495
v 0.221599 0.726445 -0.036515
v 0.272372 0.677289 -0.099170
v 0.272292 0.680305 -0.072285
v 0.272519 0.674636 0.094550
v 0.272368 0.678867 0.032747
v 0.272343 0.679347 -0.002264
v 0.272317 0.679826 -0.037274
v 0.242111 0.673722 0.094599
v 0.272394 0.678387 0.067757
v 0.241984 0.677472 0.067808
v 0.241928 0.678431 -0.002211
v 0.241900 0.678909 -0.037221
v 0.219846 0.673432 0.067811
v 0.241956 0.677952 0.032798
v 0.219785 0.674389 -0.002206
v 0.219754 0.674867 -0.037214
v 0.240448 0.727801 -0.095049
v 0.218242 0.674188 -0.100579
v 0.219815 0.673910 0.032803
v 0.218420 0.671499 0.096127
v 0.392560 0.729771 0.103230
v 0.392469 0.732678 -0.106859
v 0.372002 1.387791 -0.027742
v 0.371987 1.388276 -0.062757
v 0.311394 1.386867 -0.097772
v 0.371971 1.388760 -0.097772
v 0.341682 1.387814 -0.097772
v 0.281105 1.385921 -0.097772
v 0.250816 1.384975 -0.097772
v 0.190334 1.382185 -0.027589
v 0.220527 1.384029 -0.097772
v 0.190287 1.382631 -0.062679
v 0.372017 1.387307 0.007272
v 0.372032 1.386822 0.042287
v 0.281291 1.383016 0.112544
v 0.190379 1.381745 0.007499
v 0.190239 1.383083 -0.097772
v 0.190423 1.381310 0.042584
v 0.190465 1.380879 0.077668
v 0.251030 1.382133 0.112615
v 0.190506 1.380453 0.112749
v 0.220769 1.381279 0.112683
v 0.372062 1.385853 0.112317
v 0.193952 1.263806 -0.099388
v 0.197615 1.144529 -0.100996
v 0.193890 1.261132 0.111112
v 0.201226 1.025250 -0.102595
v 0.197348 1.141812 0.109461
v 0.204789 0.905971 -0.104185
v 0.200880 1.022492 0.107796
v 0.375789 1.266565 0.110665
v 0.379516 1.147277 0.109013
v 0.386970 0.908702 0.105709
v 0.383243 1.027990 0.107361
v 0.390696 0.789415 0.104056
v 0.375698 1.269473 -0.099425
v 0.379425 1.150185 -0.101077
v 0.383152 1.030897 -0.102729
v 0.386879 0.911610 -0.104381
v 0.390606 0.792322 -0.106033
vt 0.750468 0.170473
vt 0.751744 0.170473
vt 0.753020 0.171948
vt 0.808372 0.179421
vt 0.807097 0.180896
vt 0.807097 0.179421
vt 0.809648 0.179421
vt 0.808372 0.180896
vt 0.810924 0.179421
vt 0.809648 0.180896
vt 0.808372 0.172048
vt 0.807097 0.173523
vt 0.807097 0.172048
vt 0.808372 0.174998
vt 0.807097 0.174998
vt 0.808372 0.176472
vt 0.807097 0.176472
vt 0.808372 0.177947
vt 0.807097 0.177947
vt 0.809648 0.172048
vt 0.808372 0.173523
vt 0.809648 0.174998
vt 0.809648 0.176472
vt 0.809648 0.177947
vt 0.810924 0.172048
vt 0.809648 0.173523
vt 0.810924 0.174998
vt 0.810924 0.176472
vt 0.810924 0.177947
vt 0.792297 0.157396
vt 0.791810 0.154883
vt 0.792297 0.154883
vt 0.825390 0.158851
vt 0.824458 0.159195
vt 0.824114 0.158851
vt 0.824114 0.163274
vt 0.824601 0.164749
vt 0.824114 0.164749
vt 0.827585 0.130579
vt 0.827098 0.129104
vt 0.827585 0.129104
vt 0.802172 0.106576
vt 0.801685 0.105300
vt 0.802172 0.105300
vt 0.824114 0.166224
vt 0.824601 0.166224
vt 0.827585 0.132053
vt 0.827098 0.130579
vt 0.801685 0.107039
vt 0.802172 0.109552
vt 0.801685 0.109552
vt 0.825072 0.136477
vt 0.827241 0.136133
vt 0.827585 0.136477
vt 0.824458 0.167354
vt 0.824114 0.167698
vt 0.790456 0.127629
vt 0.791931 0.127629
vt 0.793405 0.132655
vt 0.827585 0.133528
vt 0.827098 0.132053
vt 0.737980 0.161629
vt 0.738466 0.162905
vt 0.737980 0.162905
vt 0.827585 0.135002
vt 0.827098 0.133528
vt 0.824114 0.160325
vt 0.824601 0.160325
vt 0.825390 0.167698
vt 0.825390 0.167212
vt 0.827098 0.135002
vt 0.827241 0.127973
vt 0.827585 0.127629
vt 0.824114 0.161800
vt 0.824601 0.161800
vt 0.825072 0.127629
vt 0.825072 0.128116
vt 0.826666 0.158851
vt 0.825390 0.159337
vt 0.826666 0.167698
vt 0.826666 0.167212
vt 0.824601 0.163274
vt 0.031557 0.392484
vt 0.031812 0.392175
vt 0.031813 0.392484
vt 0.038433 0.380056
vt 0.038179 0.379368
vt 0.038435 0.379370
vt 0.038783 0.379370
vt 0.030380 0.381561
vt 0.027865 0.382692
vt 0.027867 0.381561
vt 0.041894 0.369825
vt 0.041209 0.370134
vt 0.041208 0.369825
vt 0.041895 0.370134
vt 0.041209 0.370536
vt 0.041895 0.370536
vt 0.041209 0.370939
vt 0.041895 0.370939
vt 0.041209 0.371342
vt 0.041895 0.371342
vt 0.041209 0.371744
vt 0.032509 0.392484
vt 0.032160 0.392175
vt 0.032509 0.392175
vt 0.032161 0.392484
vt 0.032160 0.394404
vt 0.032509 0.394095
vt 0.032509 0.394404
vt 0.032161 0.393692
vt 0.032509 0.393692
vt 0.032161 0.393290
vt 0.032509 0.393290
vt 0.032161 0.392887
vt 0.032509 0.392887
vt 0.031812 0.394404
vt 0.032161 0.394095
vt 0.031813 0.394095
vt 0.031813 0.393290
vt 0.031813 0.392887
vt 0.031557 0.394095
vt 0.031813 0.393692
vt 0.031557 0.393290
vt 0.031557 0.392887
vt 0.034970 0.374935
vt 0.035224 0.374247
vt 0.035226 0.374933
vt 0.035572 0.374247
vt 0.035574 0.374933
vt 0.035574 0.375526
vt 0.035922 0.374932
vt 0.035922 0.375525
vt 0.035226 0.375526
vt 0.034954 0.375545
vt 0.040616 0.371342
vt 0.040616 0.371744
vt 0.040616 0.370939
vt 0.040616 0.370536
vt 0.040616 0.370134
vt 0.040598 0.369808
vt 0.041208 0.372053
vt 0.040598 0.372070
vt 0.038783 0.378777
vt 0.038435 0.378776
vt 0.039131 0.378778
vt 0.038163 0.378758
vt 0.780733 0.137965
vt 0.778183 0.140480
vt 0.776908 0.137970
vt 0.747810 0.097764
vt 0.749285 0.097764
vt 0.750759 0.100277
vt 0.763037 0.112844
vt 0.764312 0.112846
vt 0.764312 0.115358
vt 0.753020 0.176371
vt 0.753020 0.177846
vt 0.750468 0.179321
vt 0.753020 0.179321
vt 0.751744 0.179321
vt 0.749192 0.179321
vt 0.747916 0.179321
vt 0.745364 0.176371
vt 0.746640 0.179321
vt 0.745364 0.177846
vt 0.753020 0.174897
vt 0.753020 0.173422
vt 0.749192 0.170473
vt 0.745364 0.174897
vt 0.745364 0.179321
vt 0.745364 0.173422
vt 0.745364 0.171948
vt 0.747916 0.170473
vt 0.745364 0.170473
vt 0.746640 0.170473
vt 0.753020 0.170473
vt 0.810924 0.180896
vt 0.810924 0.173523
vt 0.791810 0.157396
vt 0.801685 0.106576
vt 0.802172 0.107039
vt 0.825072 0.135990
vt 0.787507 0.152757
vt 0.786032 0.152757
vt 0.784558 0.147731
vt 0.784558 0.152757
vt 0.784558 0.142706
vt 0.793405 0.147731
vt 0.784558 0.137680
vt 0.793405 0.142706
vt 0.788981 0.152757
vt 0.791931 0.152757
vt 0.790456 0.152757
vt 0.784558 0.132655
vt 0.784558 0.127629
vt 0.786032 0.127629
vt 0.793405 0.152757
vt 0.787507 0.127629
vt 0.788981 0.127629
vt 0.793405 0.137680
vt 0.793405 0.127629
vt 0.738466 0.161629
vt 0.826666 0.159337
vt 0.031540 0.392158
vt 0.038177 0.380054
vt 0.038781 0.380056
vt 0.030378 0.382692
vt 0.041895 0.371744
vt 0.031540 0.394421
vt 0.031557 0.393692
vt 0.034968 0.374249
vt 0.039131 0.379371
vt 0.782008 0.110331
vt 0.783283 0.110330
vt 0.784558 0.115352
vt 0.784558 0.110328
vt 0.784558 0.120376
vt 0.776908 0.115362
vt 0.784558 0.125400
vt 0.776908 0.120386
vt 0.780733 0.110333
vt 0.778183 0.110336
vt 0.779458 0.110335
vt 0.784558 0.130424
vt 0.776908 0.130434
vt 0.784558 0.135448
vt 0.783283 0.135450
vt 0.776908 0.110338
vt 0.782008 0.135451
vt 0.782008 0.137963
vt 0.776908 0.125410
vt 0.776908 0.135458
vt 0.780733 0.140477
vt 0.779458 0.140479
vt 0.776908 0.140482
vt 0.744861 0.127921
vt 0.743386 0.127921
vt 0.741912 0.122894
vt 0.741912 0.127921
vt 0.741912 0.117868
vt 0.750759 0.122894
vt 0.741912 0.112842
vt 0.750759 0.117868
vt 0.746336 0.127921
vt 0.749285 0.127921
vt 0.747810 0.127921
vt 0.741912 0.107816
vt 0.750759 0.112842
vt 0.741912 0.102790
vt 0.750759 0.107816
vt 0.750759 0.127921
vt 0.741912 0.100277
vt 0.744861 0.097764
vt 0.741912 0.097764
vt 0.743386 0.097764
vt 0.746336 0.097764
vt 0.750759 0.102790
vt 0.750759 0.097764
vt 0.761762 0.140474
vt 0.760487 0.140473
vt 0.759212 0.135447
vt 0.759212 0.140471
vt 0.759212 0.130423
vt 0.766862 0.135457
vt 0.759212 0.125399
vt 0.766862 0.130433
vt 0.763037 0.140476
vt 0.765587 0.140479
vt 0.764312 0.140478
vt 0.759212 0.120375
vt 0.766862 0.120385
vt 0.759212 0.115351
vt 0.766862 0.140481
vt 0.759212 0.112839
vt 0.759212 0.110327
vt 0.760487 0.110329
vt 0.766862 0.115361
vt 0.765587 0.115359
vt 0.766862 0.125409
vt 0.761762 0.110331
vt 0.763037 0.110332
vn -0.0313 0.9994 0.0144
vn -0.0322 0.9994 0.0140
vn -0.0315 0.9994 0.0147
vn 0.0316 -0.9994 -0.0138
vn 0.0318 -0.9994 -0.0138
vn 0.0311 -0.9994 -0.0138
vn 0.0309 -0.9994 -0.0137
vn 0.0312 -0.9994 -0.0137
vn 0.0313 -0.9994 -0.0138
vn 0.0315 -0.9994 -0.0139
vn 0.0314 -0.9994 -0.0138
vn 0.0315 -0.9994 -0.0138
vn 0.0317 -0.9994 -0.0138
vn 0.0310 -0.9994 -0.0138
vn 0.0308 -0.9994 -0.0137
vn 0.0308 -0.9994 -0.0138
vn -0.9995 -0.0314 0.0000
vn 0.0301 -0.9995 -0.0137
vn 0.0300 -0.9995 -0.0135
vn 0.0299 -0.9995 -0.0135
vn 0.0298 -0.9995 -0.0134
vn -0.9995 -0.0306 0.0002
vn -0.9995 -0.0306 0.0003
vn -0.9995 -0.0307 0.0003
vn 0.0303 -0.9994 -0.0137
vn 0.0303 -0.9994 -0.0138
vn 0.0299 -0.9995 -0.0134
vn -0.9996 -0.0298 0.0000
vn -0.9995 -0.0316 -0.0006
vn -0.9995 -0.0313 0.0004
vn -0.9995 -0.0310 -0.0003
vn 0.0295 -0.9995 -0.0137
vn 0.0296 -0.9995 -0.0137
vn -0.9995 -0.0309 -0.0010
vn -0.9995 -0.0307 -0.0012
vn 0.0306 -0.9994 -0.0137
vn 0.0301 -0.9995 -0.0135
vn 0.0292 -0.9995 -0.0139
vn 0.0294 -0.9995 -0.0136
vn -0.9995 -0.0304 -0.0001
vn -0.9996 -0.0300 -0.0000
vn 0.0297 -0.9995 -0.0137
vn 0.1785 -0.9777 0.1102
vn 0.1532 -0.0093 0.9882
vn 0.1531 -0.0093 0.9882
vn 0.0022 -0.0142 0.9999
vn 0.0023 -0.0141 0.9999
vn -0.9918 -0.0308 0.1243
vn -0.9918 -0.0308 0.1241
vn -0.9917 -0.0310 0.1247
vn -0.9916 -0.0293 -0.1258
vn -0.9916 -0.0290 -0.1262
vn -0.9917 -0.0294 -0.1255
vn -0.9995 -0.0308 -0.0008
vn -0.9995 -0.0308 -0.0005
vn -0.9995 -0.0310 -0.0004
vn -0.9995 -0.0305 -0.0009
vn -0.9995 -0.0304 -0.0005
vn -0.9995 -0.0302 -0.0005
vn -0.9995 -0.0300 -0.0005
vn -0.9996 -0.0297 -0.0005
vn -0.9996 -0.0298 -0.0006
vn 0.0306 -0.9933 0.1115
vn 0.0304 -0.9933 0.1115
vn 0.0302 -0.9933 0.1115
vn 0.0297 -0.9899 -0.1387
vn 0.0299 -0.9899 -0.1387
vn 0.0299 -0.9899 -0.1388
vn 0.0304 -0.9994 -0.0137
vn 0.0302 -0.9994 -0.0137
vn 0.0305 -0.9994 -0.0137
vn 0.0295 -0.9899 -0.1387
vn 0.0300 -0.9995 -0.0137
vn 0.1778 -0.9744 -0.1372
vn 0.1795 -0.9837 -0.0136
vn 0.1796 -0.9837 -0.0136
vn 0.1479 0.0175 -0.9888
vn 0.1482 0.0174 -0.9888
vn 0.1478 0.0175 -0.9889
vn -0.0020 0.0133 -0.9999
vn -0.0019 0.0133 -0.9999
vn -0.0020 0.0134 -0.9999
vn -0.0042 0.0788 -0.9969
vn -0.0041 0.0788 -0.9969
vn -0.0042 0.0789 -0.9969
vn 0.0578 0.0413 -0.9975
vn -0.9994 0.0357 0.0010
vn -0.9993 0.0361 0.0013
vn -0.9993 0.0363 0.0014
vn -0.9994 0.0353 0.0007
vn -0.9994 0.0350 0.0009
vn -0.9994 0.0346 0.0008
vn -0.9994 0.0346 0.0013
vn -0.9994 0.0344 0.0010
vn -0.9987 -0.0044 -0.0506
vn -0.9986 -0.0027 0.0523
vn 0.0001 0.0513 0.9987
vn 0.0002 0.0513 0.9987
vn 0.0001 0.0512 0.9987
vn 0.0001 0.0514 0.9987
vn 0.0002 0.0514 0.9987
vn 0.0630 0.0140 0.9979
vn 0.0023 -0.0140 0.9999
vn 0.0022 -0.0139 0.9999
vn 0.0023 -0.0138 0.9999
vn 0.9995 0.0312 0.0000
vn -0.0021 0.0135 -0.9999
vn -0.0021 0.0134 -0.9999
vn -0.0018 0.0134 -0.9999
vn -0.0312 0.9994 0.0138
vn -0.0316 0.9994 0.0132
vn -0.0312 0.9994 0.0128
vn -0.0314 0.9994 0.0126
vn -0.0312 0.9994 0.0129
vn -0.0313 0.9994 0.0128
vn -0.0309 0.9994 0.0138
vn -0.0307 0.9994 0.0147
vn -0.0294 0.9995 0.0130
vn -0.0303 0.9995 0.0132
vn -0.0285 0.9995 0.0129
vn -0.0279 0.9995 0.0128
vn -0.0281 0.9995 0.0126
vn -0.0273 0.9996 0.0122
vn -0.0275 0.9995 0.0122
vn -0.0323 0.9994 0.0139
vn -0.9995 -0.0317 -0.0000
vn -0.9995 -0.0311 0.0009
vn -0.9995 -0.0311 0.0010
vn -0.9995 -0.0309 0.0007
vn -0.9996 -0.0295 -0.0013
vn -0.9996 -0.0288 0.0006
vn -0.9995 -0.0300 -0.0018
vn -0.9996 -0.0298 -0.0018
vn -0.9996 -0.0298 0.0016
vn -0.9996 -0.0284 0.0008
vn -0.9996 -0.0283 0.0009
vn -0.9996 -0.0295 -0.0011
vn -0.9996 -0.0294 -0.0010
vn -0.9995 -0.0302 -0.0009
vn -0.9996 -0.0299 -0.0020
vn 0.0306 -0.9994 -0.0138
vn 0.0894 -0.9953 0.0359
vn 0.1532 -0.0093 0.9881
vn 0.0024 -0.0141 0.9999
vn -0.9918 -0.0306 0.1237
vn -0.9916 -0.0290 -0.1263
vn -0.9996 -0.0295 -0.0010
vn 0.0301 -0.9933 0.1116
vn 0.0296 -0.9899 -0.1387
vn 0.0892 -0.9940 -0.0634
vn 0.1483 0.0174 -0.9888
vn -0.0040 0.0787 -0.9969
vn 0.1456 0.0822 -0.9859
vn -0.9994 0.0357 0.0005
vn -0.9994 0.0341 0.0005
vn -0.9916 0.0356 -0.1244
vn -0.9915 0.0343 0.1253
vn 0.0003 0.0515 0.9987
vn 0.1509 0.0555 0.9870
vn 0.0027 -0.0137 0.9999
vn 0.0026 -0.0137 0.9999
vn 0.0028 -0.0138 0.9999
vn 0.0026 -0.0136 0.9999
vn 0.0029 -0.0138 0.9999
vn 0.0028 -0.0139 0.9999
vn 0.0030 -0.0138 0.9999
vn 0.0026 -0.0140 0.9999
vn 0.0026 -0.0139 0.9999
vn 0.0031 -0.0138 0.9999
vn 0.0025 -0.0140 0.9999
vn 0.0022 -0.0141 0.9999
vn 0.0024 -0.0138 0.9999
vn 0.0021 -0.0141 0.9999
vn 0.0021 -0.0138 0.9999
vn -0.0004 0.0138 -0.9999
vn -0.0006 0.0138 -0.9999
vn -0.0008 0.0138 -0.9999
vn -0.0007 0.0136 -0.9999
vn -0.0012 0.0136 -0.9999
vn -0.0010 0.0135 -0.9999
vn -0.0005 0.0137 -0.9999
vn -0.0004 0.0135 -0.9999
vn -0.0016 0.0137 -0.9999
vn -0.0014 0.0134 -0.9999
vn -0.0020 0.0137 -0.9999
vn -0.0022 0.0137 -0.9999
vn -0.0024 0.0138 -0.9999
vn -0.0023 0.0136 -0.9999
vn -0.0018 0.0132 -0.9999
vn -0.0012 0.0133 -0.9999
vn -0.0023 0.0134 -0.9999
usemtl Material.004
s 1
f 1/1/1 2/2/2 3/3/3
f 4/4/4 5/5/5 6/6/5
f 7/7/6 8/8/4 4/4/4
f 9/9/7 10/10/8 7/7/6
f 11/11/9 12/12/4 13/13/10
f 12/12/4 14/14/11 15/15/4
f 15/15/4 16/16/12 17/17/13
f 17/17/13 18/18/12 19/19/13
f 19/19/13 4/4/4 6/6/5
f 20/20/14 21/21/11 11/11/9
f 21/21/11 22/22/14 14/14/11
f 14/14/11 23/23/6 16/16/12
f 16/16/12 24/24/6 18/18/12
f 18/18/12 7/7/6 4/4/4
f 25/25/15 26/26/14 20/20/14
f 26/26/14 27/27/16 22/22/14
f 22/22/14 28/28/15 23/23/6
f 23/23/6 29/29/7 24/24/6
f 24/24/6 9/9/7 7/7/6
f 30/30/17 31/31/17 32/32/17
f 33/33/18 34/34/19 35/35/19
f 36/36/20 37/37/20 38/38/21
f 29/39/22 39/40/23 9/41/24
f 32/42/25 40/43/25 41/44/26
f 42/45/27 37/37/20 43/46/21
f 28/47/22 44/48/22 29/39/22
f 45/49/28 46/50/28 47/51/28
f 41/52/29 48/53/30 25/54/31
f 42/45/27 49/55/32 50/56/33
f 38/57/34 42/58/34 51/59/35
f 27/60/22 52/61/22 28/47/22
f 53/62/36 54/63/36 45/64/36
f 55/65/23 56/66/22 27/60/22
f 57/67/37 34/34/19 58/68/37
f 59/69/38 49/55/32 60/70/39
f 55/65/23 48/53/30 61/71/23
f 9/41/24 62/72/40 63/73/40
f 64/74/19 58/68/37 65/75/19
f 53/76/41 62/72/40 66/77/41
f 47/78/25 67/79/18 33/33/18
f 30/80/42 60/70/39 68/81/42
f 64/74/19 69/82/20 36/36/20
f 70/83/43 71/84/43 72/85/43
f 60/86/44 73/87/45 74/88/45
f 31/89/46 60/86/47 74/88/46
f 58/90/48 75/91/49 76/92/50
f 49/93/51 77/94/52 73/95/53
f 43/96/54 78/97/55 77/94/56
f 37/98/57 79/99/58 78/97/55
f 69/100/59 80/101/60 79/99/58
f 65/102/61 76/103/62 80/101/60
f 39/104/63 81/105/64 62/106/63
f 82/107/64 71/84/65 81/105/64
f 83/108/66 61/109/67 48/110/68
f 61/109/69 84/111/70 56/112/69
f 56/112/69 85/113/25 52/114/71
f 52/114/71 86/115/25 44/116/71
f 44/116/71 82/107/25 39/104/71
f 87/117/72 88/118/66 83/108/66
f 89/119/73 84/111/70 88/118/70
f 84/111/70 90/120/18 85/113/25
f 85/113/25 91/121/18 86/115/25
f 86/115/25 72/85/18 82/107/25
f 87/117/74 92/122/74 89/119/74
f 92/122/75 93/123/76 89/119/75
f 93/123/76 94/124/76 90/120/75
f 90/120/75 95/125/75 91/121/75
f 95/125/75 72/85/75 91/121/75
f 75/126/77 67/127/78 96/128/79
f 96/128/80 46/129/81 54/130/82
f 81/131/83 66/132/84 62/133/85
f 71/134/84 54/130/84 81/131/83
f 75/126/86 71/134/86 97/135/86
f 95/136/87 76/103/88 70/137/89
f 79/99/90 95/136/87 94/138/91
f 78/97/92 94/138/91 98/139/93
f 92/140/94 78/97/92 98/139/93
f 73/95/95 92/140/95 99/141/95
f 70/137/96 75/142/96 97/143/96
f 83/144/97 74/88/98 87/145/99
f 48/146/100 31/89/101 83/144/97
f 87/145/102 73/87/102 99/147/102
f 41/148/103 11/149/104 100/150/105
f 19/151/106 6/152/106 101/153/106
f 53/154/107 45/155/108 47/156/109
f 102/157/110 103/158/110 104/159/110
f 103/158/110 105/160/110 106/161/110
f 104/159/110 103/158/110 106/161/110
f 107/162/111 108/163/112 109/164/113
f 108/163/112 110/165/114 111/166/115
f 109/164/113 108/163/112 111/166/115
f 104/159/110 107/162/111 102/157/110
f 112/167/116 102/157/110 107/162/111
f 3/3/3 113/168/117 1/1/1
f 113/168/117 112/167/116 114/169/118
f 115/170/119 112/167/116 107/162/111
f 110/165/114 116/171/114 111/166/115
f 115/170/119 117/172/120 114/169/118
f 117/172/120 118/173/121 119/174/122
f 109/164/113 115/170/119 107/162/111
f 117/172/120 119/174/122 114/169/118
f 118/173/121 120/175/123 121/176/124
f 114/169/118 1/1/1 113/168/117
f 115/170/119 114/169/118 112/167/116
f 118/173/121 121/176/124 119/174/122
f 2/2/2 122/177/125 3/3/3
f 4/4/4 8/8/4 5/5/5
f 7/7/6 10/10/8 8/8/4
f 9/9/7 63/178/7 10/10/8
f 11/11/9 21/21/11 12/12/4
f 12/12/4 21/21/11 14/14/11
f 15/15/4 14/14/11 16/16/12
f 17/17/13 16/16/12 18/18/12
f 19/19/13 18/18/12 4/4/4
f 20/20/14 26/26/14 21/21/11
f 21/21/11 26/26/14 22/22/14
f 14/14/11 22/22/14 23/23/6
f 16/16/12 23/23/6 24/24/6
f 18/18/12 24/24/6 7/7/6
f 25/25/15 55/179/15 26/26/14
f 26/26/14 55/179/15 27/27/16
f 22/22/14 27/27/16 28/28/15
f 23/23/6 28/28/15 29/29/7
f 24/24/6 29/29/7 9/9/7
f 30/30/17 68/180/17 31/31/17
f 33/33/18 67/79/18 34/34/19
f 36/36/20 69/82/20 37/37/20
f 29/39/22 44/48/22 39/40/23
f 32/42/25 31/181/25 40/43/25
f 42/45/27 38/38/21 37/37/20
f 28/47/22 52/61/22 44/48/22
f 45/49/28 54/182/28 46/50/28
f 41/52/29 40/183/126 48/53/30
f 42/45/27 43/46/21 49/55/32
f 109/184/127 111/185/128 123/186/129
f 111/185/128 116/187/128 123/186/129
f 123/186/129 124/188/130 125/189/131
f 124/188/130 126/190/132 127/191/133
f 123/186/129 125/189/131 115/192/134
f 118/193/135 117/194/136 125/189/131
f 117/194/136 115/192/134 125/189/131
f 115/192/134 109/184/127 123/186/129
f 126/190/132 128/195/137 51/59/35
f 128/195/137 35/196/138 57/197/138
f 125/189/131 124/188/130 127/191/133
f 125/189/131 120/198/135 118/193/135
f 128/195/137 57/197/138 64/199/138
f 64/199/138 36/200/139 128/195/137
f 36/200/139 38/57/34 51/59/35
f 51/59/35 129/201/140 126/190/132
f 129/201/140 127/191/133 126/190/132
f 128/195/137 36/200/139 51/59/35
f 42/58/34 50/202/34 51/59/35
f 27/60/22 56/66/22 52/61/22
f 53/62/36 66/203/141 54/63/36
f 55/65/23 61/71/23 56/66/22
f 57/67/37 35/35/19 34/34/19
f 59/69/38 50/56/33 49/55/32
f 55/65/23 25/54/31 48/53/30
f 9/41/24 39/40/23 62/72/40
f 64/74/19 57/67/37 58/68/37
f 53/76/41 63/73/40 62/72/40
f 47/78/25 46/204/26 67/79/18
f 30/80/42 59/69/38 60/70/39
f 64/74/19 65/75/19 69/82/20
f 70/83/142 97/205/142 71/84/142
f 60/86/44 49/206/143 73/87/45
f 31/89/46 68/207/144 60/86/47
f 58/90/48 34/208/145 75/91/49
f 49/93/51 43/96/146 77/94/52
f 43/96/54 37/98/57 78/97/55
f 37/98/57 69/100/59 79/99/58
f 69/100/59 65/102/61 80/101/60
f 65/102/61 58/209/147 76/103/62
f 39/104/63 82/107/64 81/105/64
f 82/107/64 72/85/148 71/84/65
f 83/108/66 88/118/66 61/109/67
f 61/109/69 88/118/70 84/111/70
f 56/112/69 84/111/70 85/113/25
f 52/114/71 85/113/25 86/115/25
f 44/116/71 86/115/25 82/107/25
f 87/117/72 89/119/149 88/118/66
f 89/119/73 93/123/73 84/111/70
f 84/111/70 93/123/73 90/120/18
f 85/113/25 90/120/18 91/121/18
f 86/115/25 91/121/18 72/85/18
f 87/117/150 99/210/150 92/122/150
f 92/122/75 98/211/76 93/123/76
f 93/123/76 98/211/76 94/124/76
f 90/120/75 94/124/76 95/125/75
f 95/125/75 70/83/76 72/85/75
f 75/126/77 34/212/151 67/127/78
f 96/128/80 67/127/81 46/129/81
f 81/131/83 54/130/84 66/132/84
f 71/134/84 96/128/152 54/130/84
f 75/126/153 96/128/153 71/134/153
f 95/136/87 80/101/154 76/103/88
f 79/99/90 80/101/154 95/136/87
f 78/97/92 79/99/90 94/138/91
f 92/140/94 77/94/155 78/97/92
f 73/95/156 77/94/156 92/140/156
f 70/137/157 76/103/157 75/142/157
f 83/144/97 31/89/101 74/88/98
f 48/146/100 40/213/158 31/89/101
f 87/145/159 74/88/159 73/87/159
f 119/214/160 121/215/161 125/216/162
f 121/215/161 120/217/163 125/216/162
f 125/216/162 127/218/164 130/219/164
f 127/218/164 129/220/165 131/221/162
f 125/216/162 130/219/164 114/222/162
f 2/223/166 1/224/164 130/219/164
f 1/224/164 114/222/162 130/219/164
f 114/222/162 119/214/160 125/216/162
f 129/220/165 51/225/167 132/226/168
f 51/225/167 50/227/47 59/228/144
f 130/219/164 127/218/164 131/221/162
f 130/219/164 122/229/169 2/223/166
f 51/225/167 59/228/144 30/230/170
f 30/230/170 32/231/171 41/148/103
f 51/225/167 30/230/170 132/226/168
f 132/226/168 133/232/162 129/220/165
f 133/232/162 131/221/162 129/220/165
f 30/230/170 41/148/103 134/233/172
f 132/226/168 30/230/170 134/233/172
f 41/148/103 25/234/173 20/235/173
f 11/149/104 13/236/174 100/150/105
f 41/148/103 20/235/173 11/149/104
f 100/150/105 134/233/172 41/148/103
f 113/237/106 3/238/106 130/239/106
f 3/238/106 122/240/106 130/239/106
f 130/239/106 131/241/106 135/242/106
f 131/241/106 133/243/106 136/244/106
f 130/239/106 135/242/106 112/245/106
f 103/246/106 102/247/106 135/242/106
f 102/247/106 112/245/106 135/242/106
f 112/245/106 113/237/106 130/239/106
f 133/243/106 132/248/106 137/249/106
f 132/248/106 134/250/106 138/251/106
f 133/243/106 137/249/106 136/244/106
f 135/242/106 131/241/106 136/244/106
f 135/242/106 105/252/106 103/246/106
f 134/250/106 100/253/106 15/254/106
f 100/253/106 13/255/106 12/256/106
f 134/250/106 15/254/106 17/257/106
f 139/258/106 138/251/106 134/250/106
f 138/251/106 137/249/106 132/248/106
f 12/256/106 15/254/106 100/253/106
f 134/250/106 17/257/106 139/258/106
f 139/258/106 17/257/106 19/151/106
f 6/152/106 5/259/106 101/153/106
f 101/153/106 139/258/106 19/151/106
f 104/260/175 106/261/175 135/262/176
f 106/261/175 105/263/175 135/262/176
f 135/262/176 136/264/177 123/265/178
f 136/264/177 137/266/179 124/267/180
f 135/262/176 123/265/178 107/268/181
f 110/269/182 108/270/182 123/265/178
f 108/270/182 107/268/181 123/265/178
f 107/268/181 104/260/175 135/262/176
f 137/266/179 138/271/183 128/272/184
f 138/271/183 139/273/185 47/156/109
f 123/265/178 136/264/177 124/267/180
f 123/265/178 116/274/182 110/269/182
f 139/273/185 101/275/186 53/154/107
f 101/275/186 5/276/187 8/277/188
f 139/273/185 53/154/107 47/156/109
f 128/272/184 138/271/183 47/156/109
f 35/278/189 128/272/184 33/279/189
f 128/272/184 126/280/190 137/266/179
f 137/266/179 126/280/190 124/267/180
f 8/277/188 10/281/191 53/154/107
f 10/281/191 63/282/191 53/154/107
f 101/275/186 8/277/188 53/154/107
f 33/279/189 128/272/184 47/156/109
